# Object Export From Tinkercad Server 2015

mtllib obj.mtl

o obj_0
v -28.9347 		-7.4957 		0
v -29 		-7.5 		0
v -29 		-7 		0
v -28.8706 		-7.483 		0
v -28.8087 		-7.4619 		0
v -28.75 		-7.433 		0
v -28.6956 		-7.3967 		0
v -28.6464 		-7.3536 		0
v -28.6033 		-7.3044 		0
v -28.567 		-7.25 		0
v -28.5381 		-7.1913 		0
v -28.517 		-7.1294 		0
v -28.5043 		-7.0653 		0
v -28.5 		-7 		0
v -28.5043 		-6.9347 		0
v -28.517 		-6.8706 		0
v -28.5381 		-6.8087 		0
v -28.567 		-6.75 		0
v -28.6033 		-6.6956 		0
v -28.6464 		-6.6464 		0
v -28.6956 		-6.6033 		0
v -28.75 		-6.567 		0
v -28.8087 		-6.5381 		0
v -28.8706 		-6.517 		0
v -28.9347 		-6.5043 		0
v -29 		-6.5 		0
v -29.0653 		-6.5043 		0
v -29.1294 		-6.517 		0
v -29.1913 		-6.5381 		0
v -29.25 		-6.567 		0
v -29.3044 		-6.6033 		0
v -29.3536 		-6.6464 		0
v -29.3967 		-6.6956 		0
v -29.433 		-6.75 		0
v -29.4619 		-6.8087 		0
v -29.483 		-6.8706 		0
v -29.4957 		-6.9347 		0
v -29.5 		-7 		0
v -29.4957 		-7.0653 		0
v -29.483 		-7.1294 		0
v -29.4619 		-7.1913 		0
v -29.433 		-7.25 		0
v -29.3967 		-7.3044 		0
v -29.3536 		-7.3536 		0
v -29.3044 		-7.3967 		0
v -29.25 		-7.433 		0
v -29.1913 		-7.4619 		0
v -29.1294 		-7.483 		0
v -29.0653 		-7.4957 		0
v -29 		-7.5 		27.25
v -28.9347 		-7.4957 		27.25
v -29 		-7 		27.25
v -28.8706 		-7.483 		27.25
v -28.8087 		-7.4619 		27.25
v -28.75 		-7.433 		27.25
v -28.6956 		-7.3967 		27.25
v -28.6464 		-7.3536 		27.25
v -28.6033 		-7.3044 		27.25
v -28.567 		-7.25 		27.25
v -28.5381 		-7.1913 		27.25
v -28.517 		-7.1294 		27.25
v -28.5043 		-7.0653 		27.25
v -28.5 		-7 		27.25
v -28.5043 		-6.9347 		27.25
v -28.517 		-6.8706 		27.25
v -28.5381 		-6.8087 		27.25
v -28.567 		-6.75 		27.25
v -28.6033 		-6.6956 		27.25
v -28.6464 		-6.6464 		27.25
v -28.6956 		-6.6033 		27.25
v -28.75 		-6.567 		27.25
v -28.8087 		-6.5381 		27.25
v -28.8706 		-6.517 		27.25
v -28.9347 		-6.5043 		27.25
v -29 		-6.5 		27.25
v -29.0653 		-6.5043 		27.25
v -29.1294 		-6.517 		27.25
v -29.1913 		-6.5381 		27.25
v -29.25 		-6.567 		27.25
v -29.3044 		-6.6033 		27.25
v -29.3536 		-6.6464 		27.25
v -29.3967 		-6.6956 		27.25
v -29.433 		-6.75 		27.25
v -29.4619 		-6.8087 		27.25
v -29.483 		-6.8706 		27.25
v -29.4957 		-6.9347 		27.25
v -29.5 		-7 		27.25
v -29.4957 		-7.0653 		27.25
v -29.483 		-7.1294 		27.25
v -29.4619 		-7.1913 		27.25
v -29.433 		-7.25 		27.25
v -29.3967 		-7.3044 		27.25
v -29.3536 		-7.3536 		27.25
v -29.3044 		-7.3967 		27.25
v -29.25 		-7.433 		27.25
v -29.1913 		-7.4619 		27.25
v -29.1294 		-7.483 		27.25
v -29.0653 		-7.4957 		27.25
# 98 vertices

g group_0_16448250

usemtl color_16448250
s 0

f 1 	2 	3
f 4 	1 	3
f 5 	4 	3
f 6 	5 	3
f 7 	6 	3
f 8 	7 	3
f 9 	8 	3
f 10 	9 	3
f 11 	10 	3
f 12 	11 	3
f 13 	12 	3
f 14 	13 	3
f 15 	14 	3
f 16 	15 	3
f 17 	16 	3
f 18 	17 	3
f 19 	18 	3
f 20 	19 	3
f 21 	20 	3
f 22 	21 	3
f 23 	22 	3
f 24 	23 	3
f 25 	24 	3
f 26 	25 	3
f 27 	26 	3
f 28 	27 	3
f 29 	28 	3
f 30 	29 	3
f 31 	30 	3
f 32 	31 	3
f 33 	32 	3
f 34 	33 	3
f 35 	34 	3
f 36 	35 	3
f 37 	36 	3
f 38 	37 	3
f 39 	38 	3
f 40 	39 	3
f 41 	40 	3
f 42 	41 	3
f 43 	42 	3
f 44 	43 	3
f 45 	44 	3
f 46 	45 	3
f 47 	46 	3
f 48 	47 	3
f 49 	48 	3
f 2 	49 	3
f 50 	51 	52
f 51 	53 	52
f 53 	54 	52
f 54 	55 	52
f 55 	56 	52
f 56 	57 	52
f 57 	58 	52
f 58 	59 	52
f 59 	60 	52
f 60 	61 	52
f 61 	62 	52
f 62 	63 	52
f 63 	64 	52
f 64 	65 	52
f 65 	66 	52
f 66 	67 	52
f 67 	68 	52
f 68 	69 	52
f 69 	70 	52
f 70 	71 	52
f 71 	72 	52
f 72 	73 	52
f 73 	74 	52
f 74 	75 	52
f 75 	76 	52
f 76 	77 	52
f 77 	78 	52
f 78 	79 	52
f 79 	80 	52
f 80 	81 	52
f 81 	82 	52
f 82 	83 	52
f 83 	84 	52
f 84 	85 	52
f 85 	86 	52
f 86 	87 	52
f 87 	88 	52
f 88 	89 	52
f 89 	90 	52
f 90 	91 	52
f 91 	92 	52
f 92 	93 	52
f 93 	94 	52
f 94 	95 	52
f 95 	96 	52
f 96 	97 	52
f 97 	98 	52
f 98 	50 	52
f 2 	1 	1
f 1 	4 	4
f 4 	5 	5
f 5 	6 	6
f 6 	7 	7
f 7 	8 	8
f 8 	9 	9
f 9 	10 	10
f 10 	11 	11
f 11 	12 	12
f 12 	13 	13
f 13 	14 	14
f 14 	15 	15
f 15 	16 	16
f 16 	17 	17
f 17 	18 	18
f 18 	19 	19
f 19 	20 	20
f 20 	21 	21
f 21 	22 	22
f 22 	23 	23
f 23 	24 	24
f 24 	25 	25
f 25 	26 	26
f 26 	27 	27
f 27 	28 	28
f 28 	29 	29
f 29 	30 	30
f 30 	31 	31
f 31 	32 	32
f 32 	33 	33
f 33 	34 	34
f 34 	35 	35
f 35 	36 	36
f 36 	37 	37
f 37 	38 	38
f 38 	39 	39
f 39 	40 	40
f 40 	41 	41
f 41 	42 	42
f 42 	43 	43
f 43 	44 	44
f 44 	45 	45
f 45 	46 	46
f 46 	47 	47
f 47 	48 	48
f 48 	49 	49
f 49 	2 	2
f 2 	1 	51
f 2 	51 	50
f 1 	4 	53
f 1 	53 	51
f 4 	5 	54
f 4 	54 	53
f 5 	6 	55
f 5 	55 	54
f 6 	7 	56
f 6 	56 	55
f 7 	8 	57
f 7 	57 	56
f 8 	9 	58
f 8 	58 	57
f 9 	10 	59
f 9 	59 	58
f 10 	11 	60
f 10 	60 	59
f 11 	12 	61
f 11 	61 	60
f 12 	13 	62
f 12 	62 	61
f 13 	14 	63
f 13 	63 	62
f 14 	15 	64
f 14 	64 	63
f 15 	16 	65
f 15 	65 	64
f 16 	17 	66
f 16 	66 	65
f 17 	18 	67
f 17 	67 	66
f 18 	19 	68
f 18 	68 	67
f 19 	20 	69
f 19 	69 	68
f 20 	21 	70
f 20 	70 	69
f 21 	22 	71
f 21 	71 	70
f 22 	23 	72
f 22 	72 	71
f 23 	24 	73
f 23 	73 	72
f 24 	25 	74
f 24 	74 	73
f 25 	26 	75
f 25 	75 	74
f 26 	27 	76
f 26 	76 	75
f 27 	28 	77
f 27 	77 	76
f 28 	29 	78
f 28 	78 	77
f 29 	30 	79
f 29 	79 	78
f 30 	31 	80
f 30 	80 	79
f 31 	32 	81
f 31 	81 	80
f 32 	33 	82
f 32 	82 	81
f 33 	34 	83
f 33 	83 	82
f 34 	35 	84
f 34 	84 	83
f 35 	36 	85
f 35 	85 	84
f 36 	37 	86
f 36 	86 	85
f 37 	38 	87
f 37 	87 	86
f 38 	39 	88
f 38 	88 	87
f 39 	40 	89
f 39 	89 	88
f 40 	41 	90
f 40 	90 	89
f 41 	42 	91
f 41 	91 	90
f 42 	43 	92
f 42 	92 	91
f 43 	44 	93
f 43 	93 	92
f 44 	45 	94
f 44 	94 	93
f 45 	46 	95
f 45 	95 	94
f 46 	47 	96
f 46 	96 	95
f 47 	48 	97
f 47 	97 	96
f 48 	49 	98
f 48 	98 	97
f 49 	2 	50
f 49 	50 	98
f 50 	51 	51
f 51 	53 	53
f 53 	54 	54
f 54 	55 	55
f 55 	56 	56
f 56 	57 	57
f 57 	58 	58
f 58 	59 	59
f 59 	60 	60
f 60 	61 	61
f 61 	62 	62
f 62 	63 	63
f 63 	64 	64
f 64 	65 	65
f 65 	66 	66
f 66 	67 	67
f 67 	68 	68
f 68 	69 	69
f 69 	70 	70
f 70 	71 	71
f 71 	72 	72
f 72 	73 	73
f 73 	74 	74
f 74 	75 	75
f 75 	76 	76
f 76 	77 	77
f 77 	78 	78
f 78 	79 	79
f 79 	80 	80
f 80 	81 	81
f 81 	82 	82
f 82 	83 	83
f 83 	84 	84
f 84 	85 	85
f 85 	86 	86
f 86 	87 	87
f 87 	88 	88
f 88 	89 	89
f 89 	90 	90
f 90 	91 	91
f 91 	92 	92
f 92 	93 	93
f 93 	94 	94
f 94 	95 	95
f 95 	96 	96
f 96 	97 	97
f 97 	98 	98
f 98 	50 	50
# 288 faces

 #end of obj_0

o obj_1
v -24 		-8.75 		32.5
v -24 		-5.75 		32.5
v -24 		-8.75 		24.5
v -24 		-5.75 		24.5
v -33 		-5.75 		32.5
v -33 		-8.75 		32.5
v -33 		-5.75 		24.5
v -33 		-8.75 		24.5
# 8 vertices

g group_1_16448250

usemtl color_16448250
s 0

f 99 	101 	100
f 101 	102 	100
f 103 	105 	104
f 105 	106 	104
f 103 	104 	100
f 104 	99 	100
f 106 	105 	101
f 105 	102 	101
f 104 	106 	99
f 106 	101 	99
f 100 	102 	103
f 102 	105 	103
# 12 faces

 #end of obj_1

o obj_2
v -26.3172 		-6.6466 		30.2342
v -26.3067 		-6.6466 		30.1539
v -26.3033 		-6.6466 		30.0705
v -26.3588 		-6.6466 		30.3857
v -26.3345 		-6.6466 		30.3115
v -26.4282 		-6.6466 		30.5248
v -26.3901 		-6.6466 		30.4567
v -26.522 		-6.6466 		30.6516
v -26.4716 		-6.6466 		30.5897
v -26.6435 		-6.6466 		30.7661
v -26.5792 		-6.6466 		30.7103
v -26.7927 		-6.6466 		30.8682
v -26.7146 		-6.6466 		30.8187
v -26.9697 		-6.6466 		30.9544
v -26.8778 		-6.6466 		30.9132
v -27.1746 		-6.6466 		31.0258
v -27.0687 		-6.6466 		30.992
v -27.4071 		-6.6466 		31.0824
v -27.2874 		-6.6466 		31.056
v -27.6686 		-6.6466 		31.1255
v -27.5341 		-6.6466 		31.1061
v -27.9602 		-6.6466 		31.1514
v -27.8107 		-6.6466 		31.1406
v -28.2819 		-6.6466 		31.16
v -28.1173 		-6.6466 		31.1578
v -30.5 		-6.6466 		30.8867
v -30.5 		-6.6466 		31.16
v -28.6828 		-6.6466 		29.1989
v -29.8231 		-6.6466 		28.1057
v -29.8231 		-6.6466 		30.5765
v -28.511 		-6.6466 		29.1989
v -30.5 		-6.6466 		27.5
v -30.5 		-6.6466 		27.7733
v -30.198 		-6.6466 		27.7733
v -27.8601 		-6.6466 		27.7733
v -27.8601 		-6.6466 		27.5
v -28.2472 		-6.6466 		28.9024
v -28.4381 		-6.6466 		28.8997
v -28.6828 		-6.6466 		28.8997
v -27.8966 		-6.6466 		28.9237
v -28.0667 		-6.6466 		28.9104
v -27.5876 		-6.6466 		28.9664
v -27.7369 		-6.6466 		28.9424
v -27.3176 		-6.6466 		29.0296
v -27.4488 		-6.6466 		28.9958
v -27.0804 		-6.6466 		29.1084
v -27.1948 		-6.6466 		29.0672
v -26.8767 		-6.6466 		29.202
v -26.9744 		-6.6466 		29.1533
v -26.7064 		-6.6466 		29.3098
v -26.7875 		-6.6466 		29.2543
v -26.5675 		-6.6466 		29.4288
v -26.633 		-6.6466 		29.368
v -26.4599 		-6.6466 		29.5585
v -26.5098 		-6.6466 		29.4923
v -26.3828 		-6.6466 		29.6991
v -26.4178 		-6.6466 		29.6273
v -26.3319 		-6.6466 		29.8452
v -26.3542 		-6.6466 		29.7718
v -26.3065 		-6.6466 		29.9946
v -26.316 		-6.6466 		29.9195
v -29.824 		-6.6466 		30.6087
v -28.423 		-6.6466 		29.2001
v -30.1707 		-6.6466 		27.7736
v -28.3027 		-6.6466 		27.7733
v -30.198 		-6.6466 		30.8867
v -29.8266 		-6.6466 		30.6388
v -28.3397 		-6.6466 		29.2038
v -30.1442 		-6.6466 		27.7745
v -28.327 		-6.6466 		27.7735
v -29.8309 		-6.6466 		30.667
v -28.261 		-6.6466 		29.21
v -30.1186 		-6.6466 		27.7761
v -28.3513 		-6.6466 		27.7741
v -30.1723 		-6.6466 		30.8864
v -29.837 		-6.6466 		30.693
v -29.824 		-6.6466 		28.07
v -30.0939 		-6.6466 		27.7782
v -28.3756 		-6.6466 		27.7751
v -30.1471 		-6.6466 		30.8855
v -29.8448 		-6.6466 		30.717
v -30.07 		-6.6466 		27.781
v -28.3999 		-6.6466 		27.7766
v -30.1225 		-6.6466 		30.8839
v -29.8543 		-6.6466 		30.739
v -30.047 		-6.6466 		27.7844
v -28.4242 		-6.6466 		27.7784
v -30.0985 		-6.6466 		30.8818
v -29.8638 		-6.6466 		30.759
v -30.025 		-6.6466 		27.7887
v -28.4485 		-6.6466 		27.7807
v -30.0751 		-6.6466 		30.879
v -29.8746 		-6.6466 		30.7771
v -30.0042 		-6.6466 		27.7942
v -28.4706 		-6.6466 		27.7849
v -30.0522 		-6.6466 		30.8756
v -29.8869 		-6.6466 		30.7934
v -29.9845 		-6.6466 		27.801
v -28.4919 		-6.6466 		27.7901
v -30.0301 		-6.6466 		30.8713
v -28.6828 		-6.6466 		30.8572
v -29.966 		-6.6466 		27.809
v -28.5123 		-6.6466 		27.7964
v -30.0088 		-6.6466 		30.8658
v -29.9006 		-6.6466 		30.8079
v -29.9487 		-6.6466 		27.8182
v -28.5318 		-6.6466 		27.8037
v -29.9884 		-6.6466 		30.859
v -29.9158 		-6.6466 		30.8205
v -29.9689 		-6.6466 		30.851
v -29.9325 		-6.6466 		30.8313
v -29.9325 		-6.6466 		27.8287
v -29.9502 		-6.6466 		30.8418
v -29.9158 		-6.6466 		27.8417
v -29.9006 		-6.6466 		27.8562
v -28.4016 		-6.6466 		30.8572
v -29.8869 		-6.6466 		27.8721
v -28.3222 		-6.6466 		30.8557
v -29.8746 		-6.6466 		27.8894
v -28.2472 		-6.6466 		30.8514
v -29.8638 		-6.6466 		27.9082
v -28.1764 		-6.6466 		30.8442
v -29.8543 		-6.6466 		27.9284
v -28.1101 		-6.6466 		30.8342
v -29.8448 		-6.6466 		27.9518
v -28.048 		-6.6466 		30.8212
v -29.837 		-6.6466 		27.9777
v -27.9903 		-6.6466 		30.8054
v -29.8309 		-6.6466 		28.006
v -27.9365 		-6.6466 		30.788
v -29.8266 		-6.6466 		28.0368
v -27.8862 		-6.6466 		30.7677
v -27.8393 		-6.6466 		30.7445
v -28.5505 		-6.6466 		27.812
v -27.7959 		-6.6466 		30.7185
v -28.5683 		-6.6466 		27.8213
v -27.756 		-6.6466 		30.6895
v -28.585 		-6.6466 		27.8331
v -27.7195 		-6.6466 		30.6577
v -28.6007 		-6.6466 		27.8463
v -27.6864 		-6.6466 		30.6242
v -28.6151 		-6.6466 		27.861
v -28.6284 		-6.6466 		27.8771
v -27.6565 		-6.6466 		30.5875
v -28.6406 		-6.6466 		27.8947
v -27.6297 		-6.6466 		30.5478
v -28.6516 		-6.6466 		27.9136
v -27.6061 		-6.6466 		30.5051
v -28.6611 		-6.6466 		27.9356
v -27.5857 		-6.6466 		30.4592
v -28.6689 		-6.6466 		27.9596
v -27.5685 		-6.6466 		30.4103
v -28.675 		-6.6466 		27.9857
v -27.5526 		-6.6466 		30.3583
v -28.6793 		-6.6466 		28.0138
v -27.5396 		-6.6466 		30.3032
v -28.6819 		-6.6466 		28.0439
v -27.5295 		-6.6466 		30.245
v -28.6828 		-6.6466 		28.0761
v -27.5223 		-6.6466 		30.1838
v -27.5179 		-6.6466 		30.1194
v -27.5165 		-6.6466 		30.052
v -28.187 		-6.6466 		29.2186
v -27.5181 		-6.6466 		29.9775
v -28.1176 		-6.6466 		29.2297
v -27.5228 		-6.6466 		29.9068
v -28.0528 		-6.6466 		29.2432
v -27.5308 		-6.6466 		29.8397
v -27.9922 		-6.6466 		29.2608
v -27.5419 		-6.6466 		29.7763
v -27.9353 		-6.6466 		29.2814
v -27.5562 		-6.6466 		29.7166
v -27.8823 		-6.6466 		29.3051
v -27.5737 		-6.6466 		29.6605
v -27.5944 		-6.6466 		29.608
v -27.8329 		-6.6466 		29.3318
v -27.6183 		-6.6466 		29.5588
v -27.7874 		-6.6466 		29.3617
v -27.6453 		-6.6466 		29.5128
v -27.7456 		-6.6466 		29.3946
v -27.6756 		-6.6466 		29.4701
v -27.709 		-6.6466 		29.4307
v -26.3033 		-9.25 		30.0705
v -26.3067 		-9.25 		30.1539
v -26.3172 		-9.25 		30.2342
v -26.3345 		-9.25 		30.3115
v -26.3588 		-9.25 		30.3857
v -26.3901 		-9.25 		30.4567
v -26.4282 		-9.25 		30.5248
v -26.4716 		-9.25 		30.5897
v -26.522 		-9.25 		30.6516
v -26.5792 		-9.25 		30.7103
v -26.6435 		-9.25 		30.7661
v -26.7146 		-9.25 		30.8187
v -26.7927 		-9.25 		30.8682
v -26.8778 		-9.25 		30.9132
v -26.9697 		-9.25 		30.9544
v -27.0687 		-9.25 		30.992
v -27.1746 		-9.25 		31.0258
v -27.2874 		-9.25 		31.056
v -27.4071 		-9.25 		31.0824
v -27.5341 		-9.25 		31.1061
v -27.6686 		-9.25 		31.1255
v -27.8107 		-9.25 		31.1406
v -27.9602 		-9.25 		31.1514
v -28.1173 		-9.25 		31.1578
v -28.2819 		-9.25 		31.16
v -30.5 		-9.25 		31.16
v -30.5 		-9.25 		30.8867
v -29.8231 		-9.25 		30.5765
v -29.8231 		-9.25 		28.1057
v -28.6828 		-9.25 		29.1989
v -28.511 		-9.25 		29.1989
v -30.198 		-9.25 		27.7733
v -30.5 		-9.25 		27.7733
v -30.5 		-9.25 		27.5
v -27.8601 		-9.25 		27.5
v -27.8601 		-9.25 		27.7733
v -28.6828 		-9.25 		28.8997
v -28.4381 		-9.25 		28.8997
v -28.2472 		-9.25 		28.9024
v -28.0667 		-9.25 		28.9104
v -27.8966 		-9.25 		28.9237
v -27.7369 		-9.25 		28.9424
v -27.5876 		-9.25 		28.9664
v -27.4488 		-9.25 		28.9958
v -27.3176 		-9.25 		29.0296
v -27.1948 		-9.25 		29.0672
v -27.0804 		-9.25 		29.1084
v -26.9744 		-9.25 		29.1533
v -26.8767 		-9.25 		29.202
v -26.7875 		-9.25 		29.2543
v -26.7064 		-9.25 		29.3098
v -26.633 		-9.25 		29.368
v -26.5675 		-9.25 		29.4288
v -26.5098 		-9.25 		29.4923
v -26.4599 		-9.25 		29.5585
v -26.4178 		-9.25 		29.6273
v -26.3828 		-9.25 		29.6991
v -26.3542 		-9.25 		29.7718
v -26.3319 		-9.25 		29.8452
v -26.316 		-9.25 		29.9195
v -26.3065 		-9.25 		29.9946
v -29.824 		-9.25 		30.6087
v -28.423 		-9.25 		29.2001
v -30.1707 		-9.25 		27.7736
v -28.3027 		-9.25 		27.7733
v -30.198 		-9.25 		30.8867
v -29.8266 		-9.25 		30.6388
v -28.3397 		-9.25 		29.2038
v -30.1442 		-9.25 		27.7745
v -28.327 		-9.25 		27.7735
v -29.8309 		-9.25 		30.667
v -28.261 		-9.25 		29.21
v -30.1186 		-9.25 		27.7761
v -28.3513 		-9.25 		27.7741
v -30.1723 		-9.25 		30.8864
v -29.837 		-9.25 		30.693
v -29.824 		-9.25 		28.07
v -30.0939 		-9.25 		27.7782
v -28.3756 		-9.25 		27.7751
v -30.1471 		-9.25 		30.8855
v -29.8448 		-9.25 		30.717
v -30.07 		-9.25 		27.781
v -28.3999 		-9.25 		27.7766
v -30.1225 		-9.25 		30.8839
v -29.8543 		-9.25 		30.739
v -30.047 		-9.25 		27.7844
v -28.4242 		-9.25 		27.7784
v -30.0985 		-9.25 		30.8818
v -29.8638 		-9.25 		30.759
v -30.025 		-9.25 		27.7887
v -28.4485 		-9.25 		27.7807
v -30.0751 		-9.25 		30.879
v -29.8746 		-9.25 		30.7771
v -30.0042 		-9.25 		27.7942
v -28.4706 		-9.25 		27.7849
v -30.0522 		-9.25 		30.8756
v -29.8869 		-9.25 		30.7934
v -29.9845 		-9.25 		27.801
v -28.4919 		-9.25 		27.7901
v -30.0301 		-9.25 		30.8713
v -28.6828 		-9.25 		30.8572
v -29.966 		-9.25 		27.809
v -28.5123 		-9.25 		27.7964
v -30.0088 		-9.25 		30.8658
v -29.9006 		-9.25 		30.8079
v -29.9487 		-9.25 		27.8182
v -28.5318 		-9.25 		27.8037
v -29.9884 		-9.25 		30.859
v -29.9158 		-9.25 		30.8205
v -29.9689 		-9.25 		30.851
v -29.9325 		-9.25 		30.8313
v -29.9325 		-9.25 		27.8287
v -29.9502 		-9.25 		30.8418
v -29.9158 		-9.25 		27.8417
v -29.9006 		-9.25 		27.8562
v -28.4016 		-9.25 		30.8572
v -29.8869 		-9.25 		27.8721
v -28.3222 		-9.25 		30.8557
v -29.8746 		-9.25 		27.8894
v -28.2472 		-9.25 		30.8514
v -29.8638 		-9.25 		27.9082
v -28.1764 		-9.25 		30.8442
v -29.8543 		-9.25 		27.9284
v -28.1101 		-9.25 		30.8342
v -29.8448 		-9.25 		27.9518
v -28.048 		-9.25 		30.8212
v -29.837 		-9.25 		27.9777
v -27.9903 		-9.25 		30.8054
v -29.8309 		-9.25 		28.006
v -27.9365 		-9.25 		30.788
v -29.8266 		-9.25 		28.0368
v -27.8862 		-9.25 		30.7677
v -27.8393 		-9.25 		30.7445
v -28.5505 		-9.25 		27.812
v -27.7959 		-9.25 		30.7185
v -28.5683 		-9.25 		27.8213
v -27.756 		-9.25 		30.6895
v -28.585 		-9.25 		27.8331
v -27.7195 		-9.25 		30.6577
v -28.6007 		-9.25 		27.8463
v -27.6864 		-9.25 		30.6242
v -28.6151 		-9.25 		27.861
v -28.6284 		-9.25 		27.8771
v -27.6565 		-9.25 		30.5875
v -28.6406 		-9.25 		27.8947
v -27.6297 		-9.25 		30.5478
v -28.6516 		-9.25 		27.9136
v -27.6061 		-9.25 		30.5051
v -28.6611 		-9.25 		27.9356
v -27.5857 		-9.25 		30.4592
v -28.6689 		-9.25 		27.9596
v -27.5685 		-9.25 		30.4103
v -28.675 		-9.25 		27.9857
v -27.5526 		-9.25 		30.3583
v -28.6793 		-9.25 		28.0138
v -27.5396 		-9.25 		30.3032
v -28.6819 		-9.25 		28.0439
v -27.5295 		-9.25 		30.245
v -28.6828 		-9.25 		28.0761
v -27.5223 		-9.25 		30.1838
v -27.5179 		-9.25 		30.1194
v -27.5165 		-9.25 		30.052
v -28.187 		-9.25 		29.2186
v -27.5181 		-9.25 		29.9775
v -28.1176 		-9.25 		29.2297
v -27.5228 		-9.25 		29.9068
v -28.0528 		-9.25 		29.2432
v -27.5308 		-9.25 		29.8397
v -27.9922 		-9.25 		29.2608
v -27.5419 		-9.25 		29.7763
v -27.9353 		-9.25 		29.2814
v -27.5562 		-9.25 		29.7166
v -27.8823 		-9.25 		29.3051
v -27.5737 		-9.25 		29.6605
v -27.5944 		-9.25 		29.608
v -27.8329 		-9.25 		29.3318
v -27.6183 		-9.25 		29.5588
v -27.7874 		-9.25 		29.3617
v -27.6453 		-9.25 		29.5128
v -27.7456 		-9.25 		29.3946
v -27.6756 		-9.25 		29.4701
v -27.709 		-9.25 		29.4307
# 364 vertices

g group_2_16448250

usemtl color_16448250
s 0

f 107 	108 	109
f 110 	111 	107
f 112 	113 	110
f 114 	115 	112
f 116 	117 	114
f 118 	119 	116
f 120 	121 	118
f 122 	123 	120
f 124 	125 	122
f 126 	127 	124
f 128 	129 	126
f 130 	131 	128
f 132 	133 	130
f 134 	135 	136
f 135 	134 	137
f 138 	139 	140
f 141 	142 	138
f 143 	144 	145
f 146 	147 	143
f 148 	149 	146
f 150 	151 	148
f 152 	153 	150
f 154 	155 	152
f 156 	157 	154
f 158 	159 	156
f 160 	161 	158
f 162 	163 	160
f 164 	165 	162
f 166 	167 	164
f 107 	109 	166
f 112 	110 	107
f 116 	114 	112
f 120 	118 	116
f 124 	122 	120
f 128 	126 	124
f 132 	130 	128
f 134 	136 	168
f 135 	137 	169
f 138 	140 	170
f 171 	141 	138
f 146 	143 	145
f 150 	148 	146
f 154 	152 	150
f 158 	156 	154
f 162 	160 	158
f 166 	164 	162
f 112 	107 	166
f 120 	116 	112
f 128 	124 	120
f 172 	132 	128
f 134 	168 	173
f 135 	169 	174
f 138 	170 	175
f 176 	171 	138
f 150 	146 	145
f 158 	154 	150
f 166 	162 	158
f 120 	112 	166
f 172 	128 	120
f 134 	173 	177
f 135 	174 	178
f 138 	175 	179
f 180 	176 	138
f 158 	150 	145
f 120 	166 	158
f 181 	172 	120
f 134 	177 	182
f 183 	135 	178
f 138 	179 	184
f 185 	180 	138
f 186 	181 	120
f 134 	182 	187
f 138 	184 	188
f 189 	185 	138
f 190 	186 	120
f 134 	187 	191
f 138 	188 	192
f 193 	189 	138
f 194 	190 	120
f 134 	191 	195
f 138 	192 	196
f 197 	193 	138
f 198 	194 	120
f 134 	195 	199
f 138 	196 	200
f 201 	197 	138
f 202 	198 	120
f 134 	199 	203
f 138 	200 	204
f 205 	201 	138
f 206 	202 	120
f 207 	134 	203
f 138 	204 	208
f 209 	205 	138
f 210 	206 	120
f 207 	203 	211
f 138 	208 	212
f 213 	209 	138
f 214 	210 	120
f 207 	211 	215
f 213 	138 	212
f 216 	214 	120
f 207 	215 	217
f 213 	212 	218
f 219 	216 	120
f 207 	217 	219
f 213 	218 	220
f 207 	219 	120
f 213 	220 	221
f 222 	207 	120
f 213 	221 	223
f 224 	222 	120
f 213 	223 	225
f 226 	224 	120
f 213 	225 	227
f 228 	226 	120
f 213 	227 	229
f 230 	228 	120
f 213 	229 	231
f 232 	230 	120
f 213 	231 	233
f 234 	232 	120
f 213 	233 	235
f 236 	234 	120
f 213 	235 	237
f 238 	236 	120
f 213 	237 	183
f 239 	238 	120
f 240 	213 	183
f 241 	239 	120
f 242 	240 	183
f 243 	241 	120
f 244 	242 	183
f 245 	243 	120
f 246 	244 	183
f 247 	245 	120
f 248 	246 	183
f 247 	120 	158
f 249 	248 	183
f 250 	247 	158
f 251 	249 	183
f 252 	250 	158
f 253 	251 	183
f 254 	252 	158
f 255 	253 	183
f 256 	254 	158
f 257 	255 	183
f 258 	256 	158
f 259 	257 	183
f 260 	258 	158
f 261 	259 	183
f 262 	260 	158
f 263 	261 	183
f 264 	262 	158
f 265 	263 	183
f 266 	264 	158
f 145 	265 	183
f 267 	266 	158
f 145 	183 	178
f 268 	267 	158
f 145 	178 	269
f 270 	268 	158
f 145 	269 	271
f 272 	270 	158
f 145 	271 	273
f 274 	272 	158
f 145 	273 	275
f 276 	274 	158
f 145 	275 	277
f 278 	276 	158
f 145 	277 	279
f 280 	278 	158
f 158 	145 	279
f 281 	280 	158
f 158 	279 	282
f 283 	281 	158
f 158 	282 	284
f 285 	283 	158
f 158 	284 	286
f 287 	285 	158
f 158 	286 	288
f 288 	287 	158
f 289 	290 	291
f 291 	292 	293
f 293 	294 	295
f 295 	296 	297
f 297 	298 	299
f 299 	300 	301
f 301 	302 	303
f 303 	304 	305
f 305 	306 	307
f 307 	308 	309
f 309 	310 	311
f 311 	312 	313
f 313 	314 	315
f 316 	317 	318
f 319 	318 	317
f 320 	321 	322
f 322 	323 	324
f 325 	326 	327
f 327 	328 	329
f 329 	330 	331
f 331 	332 	333
f 333 	334 	335
f 335 	336 	337
f 337 	338 	339
f 339 	340 	341
f 341 	342 	343
f 343 	344 	345
f 345 	346 	347
f 347 	348 	349
f 349 	289 	291
f 291 	293 	295
f 295 	297 	299
f 299 	301 	303
f 303 	305 	307
f 307 	309 	311
f 311 	313 	315
f 350 	316 	318
f 351 	319 	317
f 352 	320 	322
f 322 	324 	353
f 325 	327 	329
f 329 	331 	333
f 333 	335 	337
f 337 	339 	341
f 341 	343 	345
f 345 	347 	349
f 349 	291 	295
f 295 	299 	303
f 303 	307 	311
f 311 	315 	354
f 355 	350 	318
f 356 	351 	317
f 357 	352 	322
f 322 	353 	358
f 325 	329 	333
f 333 	337 	341
f 341 	345 	349
f 349 	295 	303
f 303 	311 	354
f 359 	355 	318
f 360 	356 	317
f 361 	357 	322
f 322 	358 	362
f 325 	333 	341
f 341 	349 	303
f 303 	354 	363
f 364 	359 	318
f 360 	317 	365
f 366 	361 	322
f 322 	362 	367
f 303 	363 	368
f 369 	364 	318
f 370 	366 	322
f 322 	367 	371
f 303 	368 	372
f 373 	369 	318
f 374 	370 	322
f 322 	371 	375
f 303 	372 	376
f 377 	373 	318
f 378 	374 	322
f 322 	375 	379
f 303 	376 	380
f 381 	377 	318
f 382 	378 	322
f 322 	379 	383
f 303 	380 	384
f 385 	381 	318
f 386 	382 	322
f 322 	383 	387
f 303 	384 	388
f 385 	318 	389
f 390 	386 	322
f 322 	387 	391
f 303 	388 	392
f 393 	385 	389
f 394 	390 	322
f 322 	391 	395
f 303 	392 	396
f 397 	393 	389
f 394 	322 	395
f 303 	396 	398
f 399 	397 	389
f 400 	394 	395
f 303 	398 	401
f 401 	399 	389
f 402 	400 	395
f 303 	401 	389
f 403 	402 	395
f 303 	389 	404
f 405 	403 	395
f 303 	404 	406
f 407 	405 	395
f 303 	406 	408
f 409 	407 	395
f 303 	408 	410
f 411 	409 	395
f 303 	410 	412
f 413 	411 	395
f 303 	412 	414
f 415 	413 	395
f 303 	414 	416
f 417 	415 	395
f 303 	416 	418
f 419 	417 	395
f 303 	418 	420
f 365 	419 	395
f 303 	420 	421
f 365 	395 	422
f 303 	421 	423
f 365 	422 	424
f 303 	423 	425
f 365 	424 	426
f 303 	425 	427
f 365 	426 	428
f 303 	427 	429
f 365 	428 	430
f 341 	303 	429
f 365 	430 	431
f 341 	429 	432
f 365 	431 	433
f 341 	432 	434
f 365 	433 	435
f 341 	434 	436
f 365 	435 	437
f 341 	436 	438
f 365 	437 	439
f 341 	438 	440
f 365 	439 	441
f 341 	440 	442
f 365 	441 	443
f 341 	442 	444
f 365 	443 	445
f 341 	444 	446
f 365 	445 	447
f 341 	446 	448
f 365 	447 	325
f 341 	448 	449
f 360 	365 	325
f 341 	449 	450
f 451 	360 	325
f 341 	450 	452
f 453 	451 	325
f 341 	452 	454
f 455 	453 	325
f 341 	454 	456
f 457 	455 	325
f 341 	456 	458
f 459 	457 	325
f 341 	458 	460
f 461 	459 	325
f 341 	460 	462
f 461 	325 	341
f 341 	462 	463
f 464 	461 	341
f 341 	463 	465
f 466 	464 	341
f 341 	465 	467
f 468 	466 	341
f 341 	467 	469
f 470 	468 	341
f 341 	469 	470
f 108 	107 	290
f 107 	291 	290
f 107 	111 	291
f 111 	292 	291
f 111 	110 	292
f 110 	293 	292
f 110 	113 	293
f 113 	294 	293
f 113 	112 	294
f 112 	295 	294
f 112 	115 	295
f 115 	296 	295
f 115 	114 	296
f 114 	297 	296
f 114 	117 	297
f 117 	298 	297
f 117 	116 	298
f 116 	299 	298
f 116 	119 	299
f 119 	300 	299
f 119 	118 	300
f 118 	301 	300
f 118 	121 	301
f 121 	302 	301
f 121 	120 	302
f 120 	303 	302
f 120 	123 	303
f 123 	304 	303
f 123 	122 	304
f 122 	305 	304
f 122 	125 	305
f 125 	306 	305
f 125 	124 	306
f 124 	307 	306
f 124 	127 	307
f 127 	308 	307
f 127 	126 	308
f 126 	309 	308
f 126 	129 	309
f 129 	310 	309
f 129 	128 	310
f 128 	311 	310
f 128 	131 	311
f 131 	312 	311
f 131 	130 	312
f 130 	313 	312
f 130 	133 	313
f 133 	314 	313
f 133 	132 	314
f 132 	315 	314
f 132 	172 	315
f 172 	354 	315
f 172 	181 	354
f 181 	363 	354
f 181 	186 	363
f 186 	368 	363
f 186 	190 	368
f 190 	372 	368
f 190 	194 	372
f 194 	376 	372
f 194 	198 	376
f 198 	380 	376
f 198 	202 	380
f 202 	384 	380
f 202 	206 	384
f 206 	388 	384
f 206 	210 	388
f 210 	392 	388
f 210 	214 	392
f 214 	396 	392
f 214 	216 	396
f 216 	398 	396
f 216 	219 	398
f 219 	401 	398
f 219 	217 	401
f 217 	399 	401
f 217 	215 	399
f 215 	397 	399
f 215 	211 	397
f 211 	393 	397
f 211 	203 	393
f 203 	385 	393
f 203 	199 	385
f 199 	381 	385
f 199 	195 	381
f 195 	377 	381
f 195 	191 	377
f 191 	373 	377
f 191 	187 	373
f 187 	369 	373
f 187 	182 	369
f 182 	364 	369
f 182 	177 	364
f 177 	359 	364
f 177 	173 	359
f 173 	355 	359
f 173 	168 	355
f 168 	350 	355
f 168 	136 	350
f 136 	316 	350
f 136 	135 	316
f 135 	317 	316
f 135 	183 	317
f 183 	365 	317
f 183 	237 	365
f 237 	419 	365
f 237 	235 	419
f 235 	417 	419
f 235 	233 	417
f 233 	415 	417
f 233 	231 	415
f 231 	413 	415
f 231 	229 	413
f 229 	411 	413
f 229 	227 	411
f 227 	409 	411
f 227 	225 	409
f 225 	407 	409
f 225 	223 	407
f 223 	405 	407
f 223 	221 	405
f 221 	403 	405
f 221 	220 	403
f 220 	402 	403
f 220 	218 	402
f 218 	400 	402
f 218 	212 	400
f 212 	394 	400
f 212 	208 	394
f 208 	390 	394
f 208 	204 	390
f 204 	386 	390
f 204 	200 	386
f 200 	382 	386
f 200 	196 	382
f 196 	378 	382
f 196 	192 	378
f 192 	374 	378
f 192 	188 	374
f 188 	370 	374
f 188 	184 	370
f 184 	366 	370
f 184 	179 	366
f 179 	361 	366
f 179 	175 	361
f 175 	357 	361
f 175 	170 	357
f 170 	352 	357
f 170 	140 	352
f 140 	320 	352
f 140 	139 	320
f 139 	321 	320
f 139 	138 	321
f 138 	322 	321
f 138 	142 	322
f 142 	323 	322
f 142 	141 	323
f 141 	324 	323
f 141 	171 	324
f 171 	353 	324
f 171 	176 	353
f 176 	358 	353
f 176 	180 	358
f 180 	362 	358
f 180 	185 	362
f 185 	367 	362
f 185 	189 	367
f 189 	371 	367
f 189 	193 	371
f 193 	375 	371
f 193 	197 	375
f 197 	379 	375
f 197 	201 	379
f 201 	383 	379
f 201 	205 	383
f 205 	387 	383
f 205 	209 	387
f 209 	391 	387
f 209 	213 	391
f 213 	395 	391
f 213 	240 	395
f 240 	422 	395
f 240 	242 	422
f 242 	424 	422
f 242 	244 	424
f 244 	426 	424
f 244 	246 	426
f 246 	428 	426
f 246 	248 	428
f 248 	430 	428
f 248 	249 	430
f 249 	431 	430
f 249 	251 	431
f 251 	433 	431
f 251 	253 	433
f 253 	435 	433
f 253 	255 	435
f 255 	437 	435
f 255 	257 	437
f 257 	439 	437
f 257 	259 	439
f 259 	441 	439
f 259 	261 	441
f 261 	443 	441
f 261 	263 	443
f 263 	445 	443
f 263 	265 	445
f 265 	447 	445
f 265 	145 	447
f 145 	325 	447
f 145 	144 	325
f 144 	326 	325
f 144 	143 	326
f 143 	327 	326
f 143 	147 	327
f 147 	328 	327
f 147 	146 	328
f 146 	329 	328
f 146 	149 	329
f 149 	330 	329
f 149 	148 	330
f 148 	331 	330
f 148 	151 	331
f 151 	332 	331
f 151 	150 	332
f 150 	333 	332
f 150 	153 	333
f 153 	334 	333
f 153 	152 	334
f 152 	335 	334
f 152 	155 	335
f 155 	336 	335
f 155 	154 	336
f 154 	337 	336
f 154 	157 	337
f 157 	338 	337
f 157 	156 	338
f 156 	339 	338
f 156 	159 	339
f 159 	340 	339
f 159 	158 	340
f 158 	341 	340
f 158 	161 	341
f 161 	342 	341
f 161 	160 	342
f 160 	343 	342
f 160 	163 	343
f 163 	344 	343
f 163 	162 	344
f 162 	345 	344
f 162 	165 	345
f 165 	346 	345
f 165 	164 	346
f 164 	347 	346
f 164 	167 	347
f 167 	348 	347
f 167 	166 	348
f 166 	349 	348
f 166 	109 	349
f 109 	289 	349
f 109 	108 	289
f 108 	290 	289
f 207 	222 	389
f 222 	404 	389
f 222 	224 	404
f 224 	406 	404
f 224 	226 	406
f 226 	408 	406
f 226 	228 	408
f 228 	410 	408
f 228 	230 	410
f 230 	412 	410
f 230 	232 	412
f 232 	414 	412
f 232 	234 	414
f 234 	416 	414
f 234 	236 	416
f 236 	418 	416
f 236 	238 	418
f 238 	420 	418
f 238 	239 	420
f 239 	421 	420
f 239 	241 	421
f 241 	423 	421
f 241 	243 	423
f 243 	425 	423
f 243 	245 	425
f 245 	427 	425
f 245 	247 	427
f 247 	429 	427
f 247 	250 	429
f 250 	432 	429
f 250 	252 	432
f 252 	434 	432
f 252 	254 	434
f 254 	436 	434
f 254 	256 	436
f 256 	438 	436
f 256 	258 	438
f 258 	440 	438
f 258 	260 	440
f 260 	442 	440
f 260 	262 	442
f 262 	444 	442
f 262 	264 	444
f 264 	446 	444
f 264 	266 	446
f 266 	448 	446
f 266 	267 	448
f 267 	449 	448
f 267 	268 	449
f 268 	450 	449
f 268 	270 	450
f 270 	452 	450
f 270 	272 	452
f 272 	454 	452
f 272 	274 	454
f 274 	456 	454
f 274 	276 	456
f 276 	458 	456
f 276 	278 	458
f 278 	460 	458
f 278 	280 	460
f 280 	462 	460
f 280 	281 	462
f 281 	463 	462
f 281 	283 	463
f 283 	465 	463
f 283 	285 	465
f 285 	467 	465
f 285 	287 	467
f 287 	469 	467
f 287 	288 	469
f 288 	470 	469
f 288 	286 	470
f 286 	468 	470
f 286 	284 	468
f 284 	466 	468
f 284 	282 	466
f 282 	464 	466
f 282 	279 	464
f 279 	461 	464
f 279 	277 	461
f 277 	459 	461
f 277 	275 	459
f 275 	457 	459
f 275 	273 	457
f 273 	455 	457
f 273 	271 	455
f 271 	453 	455
f 271 	269 	453
f 269 	451 	453
f 269 	178 	451
f 178 	360 	451
f 178 	174 	360
f 174 	356 	360
f 174 	169 	356
f 169 	351 	356
f 169 	137 	351
f 137 	319 	351
f 137 	134 	319
f 134 	318 	319
f 134 	207 	318
f 207 	389 	318
# 728 faces

 #end of obj_2

o obj_3
v -25.25 		-9 		31.75
v -25.25 		-6.4062 		31.75
v -25.25 		-9 		25.25
v -25.25 		-6.4062 		25.25
v -31.75 		-6.4062 		31.75
v -31.75 		-9 		31.75
v -31.75 		-6.4062 		25.25
v -31.75 		-9 		25.25
# 8 vertices

g group_3_3888547

usemtl color_3888547
s 0

f 471 	473 	472
f 473 	474 	472
f 475 	477 	476
f 477 	478 	476
f 475 	476 	472
f 476 	471 	472
f 478 	477 	473
f 477 	474 	473
f 476 	478 	471
f 478 	473 	471
f 472 	474 	475
f 474 	477 	475
# 12 faces

 #end of obj_3

o obj_4
v -30.16 		-8.3292 		26.8474
v -30.16 		-8.3292 		27.0243
v -29.4499 		-8.3292 		27.0243
v -29.6851 		-8.3292 		26.7971
v -29.6888 		-8.3292 		26.8225
v -29.692 		-8.3292 		26.8474
v -29.6758 		-8.3292 		26.7448
v -29.6807 		-8.3292 		26.7712
v -29.664 		-8.3292 		26.6903
v -29.6702 		-8.3292 		26.7178
v -29.8559 		-8.3292 		26.5241
v -29.788 		-8.3292 		26.7071
v -30.5364 		-8.3292 		25.8711
v -30.5719 		-8.3292 		25.8903
v -30.3735 		-8.3292 		25.9773
v -30.1786 		-8.3292 		25.8325
v -30.3475 		-8.3292 		25.75
v -30.3756 		-8.3292 		25.7705
v -29.8937 		-8.3292 		26.0428
v -30.0275 		-8.3292 		25.9302
v -29.6762 		-8.3292 		26.3121
v -29.7767 		-8.3292 		26.1702
v -29.4403 		-8.3292 		26.2067
v -29.5262 		-8.3292 		26.3372
v -29.5916 		-8.3292 		26.4683
v -29.1962 		-8.3292 		25.9596
v -29.3312 		-8.3292 		26.0798
v -28.8372 		-8.3292 		25.751
v -29.0324 		-8.3292 		25.849
v -28.9628 		-8.3292 		26.0753
v -28.6409 		-8.3292 		25.9018
v -28.6709 		-8.3292 		25.8832
v -29.4424 		-8.3292 		26.8675
v -29.9469 		-8.3292 		26.359
v -30.2043 		-8.3292 		26.0848
v -30.4119 		-8.3292 		25.795
v -28.8115 		-8.3292 		25.7757
v -28.7059 		-8.3292 		25.8592
v -30.0625 		-8.3292 		26.2123
v -30.4956 		-8.3292 		25.8474
v -30.453 		-8.3292 		25.8213
v -28.7429 		-8.3292 		25.8319
v -29.4078 		-8.3292 		26.681
v -28.7791 		-8.3292 		25.8034
v -29.3283 		-8.3292 		26.478
v -29.1859 		-8.3292 		26.2717
v -29.4499 		-9.0674 		27.0243
v -30.16 		-9.0674 		27.0243
v -30.16 		-9.0674 		26.8474
v -29.692 		-9.0674 		26.8474
v -29.6888 		-9.0674 		26.8225
v -29.6851 		-9.0674 		26.7971
v -29.6807 		-9.0674 		26.7712
v -29.6758 		-9.0674 		26.7448
v -29.6702 		-9.0674 		26.7178
v -29.664 		-9.0674 		26.6903
v -29.788 		-9.0674 		26.7071
v -29.8559 		-9.0674 		26.5241
v -30.3735 		-9.0674 		25.9773
v -30.5719 		-9.0674 		25.8903
v -30.5364 		-9.0674 		25.8711
v -30.3756 		-9.0674 		25.7705
v -30.3475 		-9.0674 		25.75
v -30.1786 		-9.0674 		25.8325
v -30.0275 		-9.0674 		25.9302
v -29.8937 		-9.0674 		26.0428
v -29.7767 		-9.0674 		26.1702
v -29.6762 		-9.0674 		26.3121
v -29.5916 		-9.0674 		26.4683
v -29.5262 		-9.0674 		26.3372
v -29.4403 		-9.0674 		26.2067
v -29.3312 		-9.0674 		26.0798
v -29.1962 		-9.0674 		25.9596
v -29.0324 		-9.0674 		25.849
v -28.8372 		-9.0674 		25.751
v -28.6709 		-9.0674 		25.8832
v -28.6409 		-9.0674 		25.9018
v -28.9628 		-9.0674 		26.0753
v -29.4424 		-9.0674 		26.8675
v -29.9469 		-9.0674 		26.359
v -30.2043 		-9.0674 		26.0848
v -30.4119 		-9.0674 		25.795
v -28.8115 		-9.0674 		25.7757
v -28.7059 		-9.0674 		25.8592
v -30.0625 		-9.0674 		26.2123
v -30.4956 		-9.0674 		25.8474
v -30.453 		-9.0674 		25.8213
v -28.7429 		-9.0674 		25.8319
v -29.4078 		-9.0674 		26.681
v -28.7791 		-9.0674 		25.8034
v -29.3283 		-9.0674 		26.478
v -29.1859 		-9.0674 		26.2717
v -28.105 		-8.3292 		26.0715
v -28.3619 		-8.3292 		25.7762
v -28.3619 		-8.3292 		26.9626
v -28.105 		-8.3292 		25.8935
v -28.105 		-8.3292 		25.7762
v -26.7498 		-8.3292 		25.7793
v -27.0185 		-8.3292 		25.7793
v -27.0185 		-8.3292 		25.8935
v -28.105 		-8.3292 		26.7866
v -26.7498 		-8.3292 		26.9626
v -27.0185 		-8.3292 		26.0715
v -27.0185 		-8.3292 		26.7866
v -28.3619 		-9.0674 		26.9626
v -28.3619 		-9.0674 		25.7762
v -28.105 		-9.0674 		26.0715
v -28.105 		-9.0674 		25.7762
v -28.105 		-9.0674 		25.8935
v -27.0185 		-9.0674 		25.8935
v -27.0185 		-9.0674 		25.7793
v -26.7498 		-9.0674 		25.7793
v -28.105 		-9.0674 		26.7866
v -26.7498 		-9.0674 		26.9626
v -27.0185 		-9.0674 		26.0715
v -27.0185 		-9.0674 		26.7866
# 116 vertices

g group_4_16448250

usemtl color_16448250
s 0

f 479 	480 	481
f 482 	483 	484
f 485 	486 	482
f 487 	488 	485
f 489 	490 	487
f 491 	492 	493
f 494 	495 	496
f 497 	498 	494
f 499 	500 	497
f 501 	502 	503
f 504 	505 	501
f 506 	507 	504
f 508 	509 	510
f 479 	481 	511
f 485 	482 	484
f 512 	489 	487
f 491 	493 	513
f 494 	496 	514
f 499 	497 	494
f 504 	501 	503
f 515 	506 	504
f 508 	510 	516
f 484 	479 	511
f 487 	485 	484
f 517 	512 	487
f 518 	491 	513
f 494 	514 	519
f 503 	499 	494
f 515 	504 	503
f 508 	516 	520
f 484 	511 	521
f 519 	518 	513
f 503 	494 	519
f 522 	515 	503
f 508 	520 	522
f 484 	521 	523
f 519 	513 	517
f 508 	522 	503
f 484 	523 	524
f 503 	519 	517
f 524 	508 	503
f 487 	484 	524
f 503 	517 	487
f 487 	524 	503
f 525 	526 	527
f 528 	529 	530
f 530 	531 	532
f 532 	533 	534
f 534 	535 	536
f 537 	538 	539
f 540 	541 	542
f 542 	543 	544
f 544 	545 	546
f 547 	548 	549
f 549 	550 	551
f 551 	552 	553
f 554 	555 	556
f 557 	525 	527
f 528 	530 	532
f 534 	536 	558
f 559 	537 	539
f 560 	540 	542
f 542 	544 	546
f 547 	549 	551
f 551 	553 	561
f 562 	554 	556
f 557 	527 	528
f 528 	532 	534
f 534 	558 	563
f 559 	539 	564
f 565 	560 	542
f 542 	546 	547
f 547 	551 	561
f 566 	562 	556
f 567 	557 	528
f 559 	564 	565
f 565 	542 	547
f 547 	561 	568
f 568 	566 	556
f 569 	567 	528
f 563 	559 	565
f 547 	568 	556
f 570 	569 	528
f 563 	565 	547
f 547 	556 	570
f 570 	528 	534
f 534 	563 	547
f 547 	570 	534
f 479 	484 	527
f 484 	528 	527
f 484 	483 	528
f 483 	529 	528
f 483 	482 	529
f 482 	530 	529
f 482 	486 	530
f 486 	531 	530
f 486 	485 	531
f 485 	532 	531
f 485 	488 	532
f 488 	533 	532
f 488 	487 	533
f 487 	534 	533
f 487 	490 	534
f 490 	535 	534
f 490 	489 	535
f 489 	536 	535
f 489 	512 	536
f 512 	558 	536
f 512 	517 	558
f 517 	563 	558
f 517 	513 	563
f 513 	559 	563
f 513 	493 	559
f 493 	537 	559
f 493 	492 	537
f 492 	538 	537
f 492 	491 	538
f 491 	539 	538
f 491 	518 	539
f 518 	564 	539
f 518 	519 	564
f 519 	565 	564
f 519 	514 	565
f 514 	560 	565
f 514 	496 	560
f 496 	540 	560
f 496 	495 	540
f 495 	541 	540
f 495 	494 	541
f 494 	542 	541
f 494 	498 	542
f 498 	543 	542
f 498 	497 	543
f 497 	544 	543
f 497 	500 	544
f 500 	545 	544
f 500 	499 	545
f 499 	546 	545
f 499 	503 	546
f 503 	547 	546
f 503 	502 	547
f 502 	548 	547
f 502 	501 	548
f 501 	549 	548
f 501 	505 	549
f 505 	550 	549
f 505 	504 	550
f 504 	551 	550
f 504 	507 	551
f 507 	552 	551
f 507 	506 	552
f 506 	553 	552
f 506 	515 	553
f 515 	561 	553
f 515 	522 	561
f 522 	568 	561
f 522 	520 	568
f 520 	566 	568
f 520 	516 	566
f 516 	562 	566
f 516 	510 	562
f 510 	554 	562
f 510 	509 	554
f 509 	555 	554
f 509 	508 	555
f 508 	556 	555
f 508 	524 	556
f 524 	570 	556
f 524 	523 	570
f 523 	569 	570
f 523 	521 	569
f 521 	567 	569
f 521 	511 	567
f 511 	557 	567
f 511 	481 	557
f 481 	525 	557
f 481 	480 	525
f 480 	526 	525
f 480 	479 	526
f 479 	527 	526
f 571 	572 	573
f 574 	575 	572
f 576 	577 	578
f 579 	571 	573
f 574 	572 	571
f 580 	576 	578
f 579 	573 	580
f 574 	571 	581
f 582 	579 	580
f 578 	574 	581
f 581 	582 	580
f 580 	578 	581
f 583 	584 	585
f 584 	586 	587
f 588 	589 	590
f 583 	585 	591
f 585 	584 	587
f 588 	590 	592
f 592 	583 	591
f 593 	585 	587
f 592 	591 	594
f 593 	587 	588
f 592 	594 	593
f 593 	588 	592
f 572 	575 	584
f 575 	586 	584
f 575 	574 	586
f 574 	587 	586
f 574 	578 	587
f 578 	588 	587
f 578 	577 	588
f 577 	589 	588
f 577 	576 	589
f 576 	590 	589
f 576 	580 	590
f 580 	592 	590
f 580 	573 	592
f 573 	583 	592
f 573 	572 	583
f 572 	584 	583
f 579 	582 	591
f 582 	594 	591
f 582 	581 	594
f 581 	593 	594
f 581 	571 	593
f 571 	585 	593
f 571 	579 	585
f 579 	591 	585
# 228 faces

 #end of obj_4

